# xmcd
#
# Track frame offsets:
#	150
#	15077
#	29360
#	48102
#	68625
#	83777
#	101480
#	119582
#	131590
#	148240
#	165067
#	181475
#
# Disc length: 2611 seconds
#
# Revision: 1
# Processed by: cddbd v1.4PL0 Copyright (c) Steve Scherf et al.
# Submitted via: audiograbber 1.81.02
#
DISCID=910a310c
DTITLE=My Kind Of Country - My Kind Of Country
DYEAR=2002
DGENRE=Country
TTITLE0=John Brack - Head 'Em Off At The Past
TTITLE1=Bill Britt - Shoutin' Shoes
TTITLE2=Jeff Turner - Have You Ever Been To Sindey In The Spring
TTITLE3=Rolf Raggenbass - Livin' Together, But Worlds Apart
TTITLE4=Joht Brack - Take Me Back
TTITLE5=Willy Wainwright - Railroad Work Song
TTITLE6=John Brack and Jeff Turner - Love Lifted Me
TTITLE7=Mike Douchette - Uncloudy Day
TTITLE8=Billy Troy - He Made You Mine
TTITLE9=Marco Gottardi - Little By Little
TTITLE10=Rebecca Holden - A Man's Touch
TTITLE11=Jeff Turner - The Kangaroo Kid
EXTD=
EXTT0=
EXTT1=
EXTT2=
EXTT3=
EXTT4=
EXTT5=
EXTT6=
EXTT7=
EXTT8=
EXTT9=
EXTT10=
EXTT11=
PLAYORDER=
